# Blender v2.91.2 OBJ File: 'single-hex-model.blend'
# www.blender.org
mtllib single-hex-model.mtl
o Cylinder
v -0.500000 0.006814 -0.866026
v -0.500000 0.105909 -0.866026
v 0.500000 0.006814 -0.866026
v 0.500000 0.105909 -0.866026
v 1.000000 0.006814 0.000000
v 1.000000 0.105909 0.000000
v 0.500000 0.006814 0.866025
v 0.500000 0.105909 0.866025
v -0.500000 0.006814 0.866025
v -0.500000 0.105909 0.866025
v -1.000000 0.006814 0.000000
v -1.000000 0.105909 0.000000
vt 0.346798 0.865952
vt 0.375385 0.577462
vt 0.375385 0.865952
vt 0.404620 0.865951
vt 0.433208 0.577462
vt 0.433208 0.865951
vt 0.000162 0.865951
vt 0.028749 0.577462
vt 0.028749 0.865951
vt 0.029073 0.577462
vt 0.317563 0.606050
vt 0.029073 0.606050
vt 0.499838 0.432894
vt 0.000162 0.432894
vt 0.250000 0.000162
vt 0.404297 0.577462
vt 0.375709 0.865950
vt 0.375709 0.577462
vt 0.346474 0.577462
vt 0.317886 0.865951
vt 0.317886 0.577462
vt 0.999838 0.432894
vt 0.750000 0.577138
vt 0.500162 0.144406
vt 0.346798 0.577462
vt 0.404620 0.577462
vt 0.000162 0.577462
vt 0.317563 0.577462
vt 0.499838 0.144406
vt 0.250000 0.577138
vt 0.000162 0.144406
vt 0.404297 0.865950
vt 0.346474 0.865951
vt 0.500162 0.432894
vt 0.750000 0.000162
vt 0.999838 0.144406
vn 0.0000 0.0000 -1.0000
vn 0.8660 0.0000 -0.5000
vn 0.8660 0.0000 0.5000
vn -0.0000 0.0000 1.0000
vn 0.0000 1.0000 -0.0000
vn -0.8660 0.0000 0.5000
vn -0.8660 0.0000 -0.5000
vn 0.0000 -1.0000 -0.0000
usemtl Material.001
s off
f 2/1/1 3/2/1 1/3/1
f 4/4/2 5/5/2 3/6/2
f 6/7/3 7/8/3 5/9/3
f 8/10/4 9/11/4 7/12/4
f 2/13/5 10/14/5 6/15/5
f 10/16/6 11/17/6 9/18/6
f 12/19/7 1/20/7 11/21/7
f 9/22/8 11/23/8 3/24/8
f 2/1/1 4/25/1 3/2/1
f 4/4/2 6/26/2 5/5/2
f 6/7/3 8/27/3 7/8/3
f 8/10/4 10/28/4 9/11/4
f 6/15/5 4/29/5 2/13/5
f 2/13/5 12/30/5 10/14/5
f 10/14/5 8/31/5 6/15/5
f 10/16/6 12/32/6 11/17/6
f 12/19/7 2/33/7 1/20/7
f 11/23/8 1/34/8 3/24/8
f 3/24/8 5/35/8 7/36/8
f 7/36/8 9/22/8 3/24/8
