# Blender v2.91.2 OBJ File: 'two-hexes.blend'
# www.blender.org
mtllib two-hexes-collider.mtl
o Cylinder
v -0.866025 0.007943 -1.000000
v -0.866025 0.093673 -1.000000
v -0.000000 0.007943 0.500000
v -0.000000 0.093673 0.500000
v -0.866026 0.007943 1.000000
v -0.866026 0.093673 1.000000
v -1.732051 0.007943 0.500000
v -1.732051 0.093673 0.500000
v -1.732051 0.007943 -0.500000
v -1.732051 0.093673 -0.500000
v 0.000000 0.007943 -0.500000
v 0.000000 0.093673 -0.500000
vt 0.871003 0.240485
vt 0.833468 0.480710
vt 0.833468 0.240485
vt 0.995842 0.242951
vt 0.958307 0.483175
vt 0.958307 0.242951
vt 0.833468 0.961681
vt 0.871003 0.721457
vt 0.871003 0.961681
vt 0.833468 0.721457
vt 0.871003 0.481232
vt 0.000261 0.120373
vt 0.208302 0.000261
vt 0.416342 0.120373
vt 0.947118 0.481233
vt 0.909582 0.721457
vt 0.909582 0.481233
vt 0.871003 0.000261
vt 0.833468 0.000261
vt 0.208302 0.961682
vt 0.000261 0.841569
vt 0.000261 0.601345
vt 0.871003 0.480710
vt 0.995842 0.483175
vt 0.833468 0.481232
vt 0.416342 0.360598
vt 0.208302 0.480710
vt 0.000261 0.360598
vt 0.947118 0.721457
vt 0.208302 0.481232
vt 0.416342 0.601345
vt 0.416342 0.841569
vn 0.5000 0.0000 -0.8660
vn 1.0000 0.0000 0.0000
vn 0.5000 0.0000 0.8660
vn -0.5000 0.0000 0.8660
vn 0.0000 1.0000 0.0000
vn -1.0000 0.0000 0.0000
vn -0.5000 0.0000 -0.8660
vn 0.0000 -1.0000 0.0000
usemtl Material.002
s off
f 2/1/1 11/2/1 1/3/1
f 12/4/2 3/5/2 11/6/2
f 4/7/3 5/8/3 3/9/3
f 6/10/4 7/11/4 5/8/4
f 8/12/5 6/13/5 4/14/5
f 8/15/6 9/16/6 7/17/6
f 10/18/7 1/3/7 9/19/7
f 5/20/8 7/21/8 9/22/8
f 2/1/1 12/23/1 11/2/1
f 12/4/2 4/24/2 3/5/2
f 4/7/3 6/10/3 5/8/3
f 6/10/4 8/25/4 7/11/4
f 4/14/5 12/26/5 8/12/5
f 12/26/5 2/27/5 8/12/5
f 2/27/5 10/28/5 8/12/5
f 8/15/6 10/29/6 9/16/6
f 10/18/7 2/1/7 1/3/7
f 9/22/8 1/30/8 5/20/8
f 1/30/8 11/31/8 5/20/8
f 11/31/8 3/32/8 5/20/8
o Cylinder.001
v -0.000000 0.007943 0.500000
v -0.000000 0.093673 0.500000
v 0.866025 0.007943 -1.000000
v 0.866025 0.093673 -1.000000
v 1.732051 0.007943 -0.500000
v 1.732051 0.093673 -0.500000
v 1.732051 0.007943 0.500000
v 1.732051 0.093673 0.500000
v 0.866025 0.007943 1.000000
v 0.866025 0.093673 1.000000
v 0.000000 0.007943 -0.500000
v 0.000000 0.093673 -0.500000
vt 0.947118 0.240485
vt 0.909582 0.480710
vt 0.909582 0.240485
vt 0.995842 0.002205
vt 0.958307 0.242429
vt 0.958307 0.002205
vt 0.871525 0.480710
vt 0.909060 0.240486
vt 0.909060 0.480710
vt 0.871525 0.240486
vt 0.909060 0.000261
vt 0.624905 0.000261
vt 0.832946 0.120373
vt 0.624905 0.480710
vt 0.947118 0.000261
vt 0.909582 0.000261
vt 0.832946 0.601345
vt 0.624905 0.961682
vt 0.416864 0.601345
vt 0.947118 0.480710
vt 0.995842 0.242429
vt 0.871525 0.000261
vt 0.832946 0.360598
vt 0.416864 0.360598
vt 0.416864 0.120373
vt 0.624905 0.481232
vt 0.832946 0.841569
vt 0.416864 0.841569
vn 0.5000 0.0000 -0.8660
vn 1.0000 0.0000 0.0000
vn 0.5000 0.0000 0.8660
vn -0.5000 0.0000 0.8660
vn 0.0000 1.0000 -0.0000
vn -0.5000 0.0000 -0.8660
vn 0.0000 -1.0000 0.0000
vn -1.0000 0.0000 -0.0000
usemtl Material.002
s off
f 16/33/9 17/34/9 15/35/9
f 18/36/10 19/37/10 17/38/10
f 20/39/11 21/40/11 19/41/11
f 22/42/12 13/43/12 21/40/12
f 22/44/13 20/45/13 16/46/13
f 24/47/14 15/35/14 23/48/14
f 17/49/15 21/50/15 23/51/15
f 16/33/9 18/52/9 17/34/9
f 18/36/10 20/53/10 19/37/10
f 20/39/11 22/42/11 21/40/11
f 22/42/12 14/54/12 13/43/12
f 20/45/13 18/55/13 16/46/13
f 16/46/13 24/56/13 14/57/13
f 14/57/13 22/44/13 16/46/13
f 24/47/14 16/33/14 15/35/14
f 23/51/15 15/58/15 17/49/15
f 17/49/15 19/59/15 21/50/15
f 21/50/15 13/60/15 23/51/15
f 13/60/16 14/57/16 24/47/16 23/51/16
