# Blender v2.91.2 OBJ File: 'four-hexes.blend'
# www.blender.org
mtllib four-hexes.mtl
o Cylinder.001
v 0.866025 -0.049547 -1.000000
v 0.866025 0.049547 -1.000000
v 1.732051 -0.049547 -0.500000
v 1.732051 0.049547 -0.500000
v 1.732051 -0.049547 0.500000
v 1.732051 0.049547 0.500000
v 0.866025 -0.049547 1.000000
v 0.866025 0.049547 1.000000
v 0.866025 -0.049547 2.000000
v 0.866025 0.049547 2.000000
v -0.000000 -0.049547 2.500000
v -0.000000 0.049547 2.500000
v -0.866026 -0.049547 2.000000
v -0.866026 0.049547 2.000000
v -0.866026 0.049547 1.000000
v -0.000000 -0.049547 -2.500000
v -0.000000 0.049547 -2.500000
v 0.866025 -0.049547 -2.000000
v 0.866025 0.049547 -2.000000
v -0.866026 -0.049547 -2.000000
v -0.866026 0.049547 -2.000000
v -0.866026 -0.049547 -1.000000
v -0.866026 0.049547 -1.000000
v -0.000000 -0.049547 -0.500000
v -0.000000 -0.049547 0.500000
v -0.000000 0.049547 0.500000
v -0.866026 -0.049547 1.000000
v -1.732051 -0.049547 0.500000
v -1.732051 0.049547 0.500000
v -1.732051 -0.049547 -0.500000
v -1.732051 0.049547 -0.500000
vt 0.007428 0.976549
vt 0.173738 0.993029
vt 0.007428 0.993029
vt 0.173738 0.976549
vt 0.340047 0.993029
vt 0.022158 0.663916
vt 0.038639 0.497608
vt 0.038639 0.663916
vt 0.785098 0.633727
vt 0.575633 0.754662
vt 0.575633 0.512792
vt 0.340047 0.976549
vt 0.022158 0.497608
vt 0.715277 0.512792
vt 0.505811 0.633727
vt 0.577659 0.246337
vt 0.507869 0.125458
vt 0.577659 0.004579
vt 0.717238 0.004579
vt 0.787028 0.125458
vt 0.717238 0.246337
vt 0.787028 0.367217
vt 0.184104 0.497579
vt 0.167624 0.663888
vt 0.167624 0.497579
vt 0.004102 0.033627
vt 0.170412 0.050107
vt 0.004102 0.050107
vt 0.170412 0.033627
vt 0.336722 0.050107
vt 0.366168 0.875597
vt 0.366168 0.633727
vt 0.004972 0.007610
vt 0.170602 0.024023
vt 0.004972 0.024023
vt 0.926607 0.367217
vt 0.184104 0.663888
vt 0.336722 0.033627
vt 0.505811 0.875597
vt 0.296346 0.754662
vt 0.170602 0.007610
vt 0.926607 0.125458
vt 0.996397 0.246337
vt 0.008658 0.948192
vt 0.174968 0.964672
vt 0.008658 0.964672
vt 0.174968 0.948192
vt 0.341277 0.964672
vt 0.994564 0.754662
vt 0.785098 0.875597
vt 0.009012 0.925942
vt 0.175322 0.942423
vt 0.009012 0.942422
vt 0.175322 0.925942
vt 0.341630 0.942423
vt 0.507869 0.367217
vt 0.368290 0.367217
vt 0.368289 0.125458
vt 0.341277 0.948192
vt 0.924742 0.633727
vt 0.924742 0.875597
vt 0.341630 0.925942
vt 0.298500 0.246337
vt 0.336234 0.024023
vt 0.575633 0.996531
vt 0.004424 0.055087
vt 0.170731 0.071567
vt 0.004424 0.071567
vt 0.170731 0.055086
vt 0.337042 0.071567
vt 0.717238 0.488096
vt 0.577659 0.488096
vt 0.336234 0.007610
vt 0.715277 0.996531
vt 0.337042 0.055087
vn 0.5000 0.0000 -0.8660
vn 1.0000 0.0000 0.0000
vn 0.5000 0.0000 0.8660
vn 0.0000 1.0000 0.0000
vn 0.0000 -1.0000 0.0000
vn -0.5000 0.0000 0.8660
vn -1.0000 0.0000 0.0000
vn -0.5000 0.0000 -0.8660
usemtl Material.001
s off
f 2/1/1 3/2/1 1/3/1
f 4/4/2 5/5/2 3/2/2
f 6/6/3 7/7/3 5/8/3
f 2/9/4 26/10/4 6/11/4
f 2/1/1 4/4/1 3/2/1
f 4/4/2 6/12/2 5/5/2
f 6/6/3 8/13/3 7/7/3
f 6/11/4 4/14/4 2/9/4
f 26/10/4 8/15/4 6/11/4
f 24/16/5 1/17/5 3/18/5
f 3/18/5 5/19/5 7/20/5
f 24/16/5 3/18/5 25/21/5 27/22/5
f 8/23/2 9/24/2 7/25/2
f 10/26/3 11/27/3 9/28/3
f 12/29/6 13/30/6 11/27/6
f 26/10/4 14/31/4 10/32/4
f 14/33/7 27/34/7 13/35/7
f 13/36/5 27/22/5 7/20/5
f 8/23/2 10/37/2 9/24/2
f 10/26/3 12/29/3 11/27/3
f 12/29/6 14/38/6 13/30/6
f 10/32/4 8/15/4 26/10/4
f 26/10/4 15/39/4 14/31/4
f 14/31/4 12/40/4 10/32/4
f 14/33/7 15/41/7 27/34/7
f 7/20/5 9/42/5 11/43/5
f 11/43/5 13/36/5 7/20/5
f 17/44/1 18/45/1 16/46/1
f 19/47/2 1/48/2 18/45/2
f 17/49/4 23/50/4 2/9/4
f 23/51/7 20/52/7 22/53/7
f 21/54/8 16/55/8 20/52/8
f 22/56/5 20/57/5 18/58/5
f 17/44/1 19/47/1 18/45/1
f 19/47/2 2/59/2 1/48/2
f 2/9/4 19/60/4 17/49/4
f 17/49/4 21/61/4 23/50/4
f 23/51/7 21/54/7 20/52/7
f 21/54/8 17/62/8 16/55/8
f 20/57/5 16/63/5 18/58/5
f 18/58/5 1/17/5 24/16/5
f 25/21/5 3/18/5 7/20/5 27/22/5
f 15/41/6 28/64/6 27/34/6
f 23/50/4 29/65/4 26/10/4
f 29/66/7 30/67/7 28/68/7
f 31/69/8 22/70/8 30/67/8
f 28/71/5 30/72/5 24/16/5
f 15/41/6 29/73/6 28/64/6
f 23/50/4 31/74/4 29/65/4
f 29/65/4 15/39/4 26/10/4
f 29/66/7 31/69/7 30/67/7
f 31/69/8 23/75/8 22/70/8
f 27/22/5 28/71/5 24/16/5
f 26/10/4 2/9/4 23/50/4
f 22/56/5 18/58/5 24/16/5 30/72/5
